<svg xmlns="http://www.w3.org/2000/svg" viewBox="0 0 1333.32 1207.46" shape-rendering="geometricPrecision" text-rendering="geometricPrecision" image-rendering="optimizeQuality" fill-rule="evenodd" clip-rule="evenodd"><path d="M330.79 156.08l-40.91 40.91L103.57 10.72c-14.29-14.3-37.66-14.3-51.94 0L10.7 51.63c-14.28 14.3-14.26 37.68 0 51.94l186.32 186.29-40.93 40.93c-4.33 4.31-4.33 11.41 0 15.72l21.24 21.26c4.33 4.31 11.41 4.31 15.74 0l27.22-27.24 58.09 58.09 27.42-27.42-58.1-58.09 65.44-65.44 53.6 53.6 27.42-27.42-53.6-53.6 27.21-27.21c4.33-4.33 4.33-11.41 0-15.74l-21.24-21.24c-4.33-4.33-11.41-4.33-15.74 0zm-54.61 328.93c117.92-330.1 653.19-323.03 776.4 17.35 5.84 16.11 10.54 32.87 14.28 50.06 168-116.98 144.59 53.67 266.47 76.49-38.31 45.2-86.61 39.34-135.02 7.98 43.02 72.88-25.83 116.46 29.91 198.99-133.78-.74-78.01-129.35-130.26-178.43-6.72-6.31-13.61-9.98-20.61-11.48 5.26 315.88-266.24 704.27-586.15 508.8-207.11-126.53-294.07-448.49-215.02-669.75zm538.73 180.66c22.77 0 41.2 18.43 41.2 41.2 0 22.75-18.43 41.2-41.2 41.2-21.68 0-39.44-16.75-41.07-38.02 3.98 2.46 8.69 3.87 13.71 3.87 14.47 0 26.2-11.73 26.2-26.2 0-8.33-3.89-15.74-9.96-20.54 3.54-.99 7.27-1.52 11.13-1.52zm-305.19 0c22.75 0 41.2 18.43 41.2 41.2 0 22.75-18.45 41.2-41.2 41.2-21.69 0-39.46-16.75-41.09-38.02 4 2.46 8.69 3.87 13.73 3.87 14.45 0 26.18-11.73 26.18-26.2 0-8.33-3.89-15.74-9.94-20.54 3.52-.99 7.25-1.52 11.13-1.52zm-154.43-66.16c209.76-38.81 410.27-47.21 614.18 0 4.76 1.09 8.88 4 8.88 8.9v125.08c0 4.9-5.32 5.56-8.88 8.9-12.51 11.73-25.02 22.71-37.52 32.94-180.5 147.9-360.05 140.72-548.58-9.57-9.32-7.43-18.7-15.23-28.07-23.37-3.68-3.2-8.9-4-8.9-8.9V608.41c0-4.9 4.1-8.01 8.9-8.9z"/></svg>